# xmcd CD database file generated by Grip 2.96
# 
# Track frame offsets:
#       150
#       16741
#       50795
#       70080
#       87292
#       104868
#       122475
#       142373
#       162975
#       182601
#       203874
# 
# Disc length: 3119 seconds
# 
# Revision: 0
# Processed by: cddbd v1.4PL0 Copyright (c) Steve Scherf et al.
# Submitted via: Grip 2.96
# 
DISCID=a00c2d0b
DTITLE=Blues Moblie Band - Out in The Blue
DYEAR=1900
DGENRE=
TTITLE0=What I do
TTITLE1=She's gone
TTITLE2=I'm going home
TTITLE3=I can't stand it
TTITLE4=Try hard
TTITLE5=Leave this town
TTITLE6=I've got dreams to remember
TTITLE7=Leave me alone
TTITLE8=Tell me why
TTITLE9=Helpless without you
TTITLE10=Too late
EXTD=
EXTT0=
EXTT1=
EXTT2=
EXTT3=
EXTT4=
EXTT5=
EXTT6=
EXTT7=
EXTT8=
EXTT9=
EXTT10=
PLAYORDER=
